<svg width="95" height="41" viewBox="0 0 95 41" fill="none" xmlns="http://www.w3.org/2000/svg">
<path d="M6.50946 25.5C5.181 25.5 4.02967 25.2642 3.05546 24.7926C2.08126 24.321 1.32846 23.681 0.797077 22.8725C0.265692 22.0641 0 21.1433 0 20.1103C0 18.7629 0.498173 17.6513 1.49452 16.7754C2.49086 15.8771 3.89682 15.2259 5.71238 14.8217L11.5908 13.5416V12.969C11.5908 12.138 11.2808 11.4643 10.6609 10.9478C10.041 10.4313 9.23281 10.1731 8.23646 10.1731C7.2844 10.1731 6.44304 10.4313 5.71238 10.9478C4.98173 11.4419 4.45035 12.1156 4.11823 12.969L0.66423 11.2173C1.17347 9.84742 2.11447 8.72457 3.48721 7.84875C4.88209 6.97292 6.46518 6.53501 8.23646 6.53501C9.69777 6.53501 10.9709 6.81572 12.0558 7.37715C13.1628 7.91612 14.0263 8.66843 14.6463 9.63408C15.2662 10.5997 15.5762 11.7114 15.5762 12.969L15.5762 25.5H11.8233L11.8233 23.0746C10.4727 24.6915 8.70142 25.5 6.50946 25.5ZM4.15144 20.0766C4.15144 20.7728 4.40606 21.323 4.91531 21.7272C5.42455 22.109 6.11092 22.2999 6.97442 22.2999C7.86006 22.2999 8.64607 22.109 9.33244 21.7272C10.041 21.323 10.5945 20.784 10.993 20.1103C11.3916 19.4141 11.5908 18.6394 11.5908 17.786V16.5733L6.50946 17.7523C5.77881 17.9095 5.20314 18.2015 4.78246 18.6281C4.36178 19.0324 4.15144 19.5152 4.15144 20.0766Z" fill="#FE4329"/>
<path d="M23.8256 25.0958L16.7848 6.93923H21.0027L25.6191 19.6724L30.2355 6.93923H34.4533L27.3793 25.0958H23.8256Z" fill="#FE4329"/>
<path d="M41.5048 25.5C40.1763 25.5 39.025 25.2642 38.0508 24.7926C37.0766 24.321 36.3238 23.681 35.7924 22.8725C35.261 22.0641 34.9954 21.1433 34.9954 20.1103C34.9954 18.7629 35.4935 17.6513 36.4899 16.7754C37.4862 15.8771 38.8922 15.2259 40.7077 14.8217L46.5862 13.5416V12.969C46.5862 12.138 46.2762 11.4643 45.6562 10.9478C45.0363 10.4313 44.2282 10.1731 43.2318 10.1731C42.2797 10.1731 41.4384 10.4313 40.7077 10.9478C39.9771 11.4419 39.4457 12.1156 39.1136 12.969L35.6596 11.2173C36.1688 9.84742 37.1098 8.72457 38.4826 7.84875C39.8774 6.97292 41.4605 6.53501 43.2318 6.53501C44.6931 6.53501 45.9662 6.81572 47.0511 7.37715C48.1582 7.91612 49.0217 8.66843 49.6416 9.63408C50.2616 10.5997 50.5716 11.7114 50.5716 12.969L50.5715 25.5H46.8186L46.8187 23.0746C45.468 24.6915 43.6968 25.5 41.5048 25.5ZM39.1468 20.0766C39.1468 20.7728 39.4014 21.323 39.9107 21.7272C40.4199 22.109 41.1063 22.2999 41.9698 22.2999C42.8554 22.2999 43.6414 22.109 44.3278 21.7272C45.0363 21.323 45.5898 20.784 45.9884 20.1103C46.3869 19.4141 46.5862 18.6394 46.5862 17.786V16.5733L41.5048 17.7523C40.7742 17.9095 40.1985 18.2015 39.7778 18.6281C39.3571 19.0324 39.1468 19.5152 39.1468 20.0766Z" fill="#FE4329"/>
<path d="M61.8355 25.5C60.1085 25.5 58.5586 25.0845 57.1858 24.2536C55.8352 23.4227 54.7614 22.2886 53.9643 20.8514C53.1672 19.4141 52.7687 17.8085 52.7687 16.0343C52.7687 14.2378 53.1672 12.6209 53.9643 11.1836C54.7614 9.74637 55.8463 8.61229 57.2191 7.78137C58.5918 6.95046 60.1195 6.53501 61.8022 6.53501C62.9979 6.53501 64.0828 6.74835 65.057 7.17503C66.0533 7.60172 66.8725 8.19683 67.5146 8.96037V0H71.5L71.5 25.5H67.7139L67.7139 22.9736C67.0497 23.782 66.1972 24.4108 65.1566 24.86C64.1381 25.2867 63.0311 25.5 61.8355 25.5ZM62.234 21.7609C63.2525 21.7609 64.1603 21.5251 64.9573 21.0535C65.7544 20.5594 66.3744 19.8857 66.8172 19.0324C67.2821 18.1565 67.5146 17.1572 67.5146 16.0343C67.5146 14.9115 67.2821 13.9234 66.8172 13.07C66.3744 12.1942 65.7544 11.5092 64.9573 11.0152C64.1603 10.5211 63.2525 10.2741 62.234 10.2741C61.1934 10.2741 60.2745 10.5211 59.4774 11.0152C58.6804 11.5092 58.0493 12.1942 57.5844 13.07C57.1416 13.9458 56.9201 14.9339 56.9201 16.0343C56.9201 17.1347 57.1416 18.1229 57.5844 18.9987C58.0493 19.852 58.6804 20.5258 59.4774 21.0198C60.2745 21.5139 61.1934 21.7609 62.234 21.7609Z" fill="#FE4329"/>
<path fill-rule="evenodd" clip-rule="evenodd" d="M75 23.6954C75 24.4159 75.6042 25 76.3496 25H82.8601C83.2778 25 83.5807 24.617 83.5399 24.2151C83.5133 23.9535 83.5 23.6919 83.5 23.4303C83.5 21.5466 84.1641 19.9419 85.4922 18.6162C86.8204 17.2906 88.4495 16.6279 90.3797 16.6279C90.6454 16.6279 90.9154 16.6409 91.1899 16.6671C91.6033 16.7065 92 16.4154 92 16.0138V13.0868C92 12.6803 91.804 12.297 91.4699 12.0502L84.3195 6.76803C83.8357 6.41066 83.1643 6.41066 82.6805 6.76803L75.5301 12.0502C75.196 12.297 75 12.6803 75 13.0868V23.6954Z" fill="#FE4329"/>
<path d="M91.224 27.8565C91.1379 28.0478 90.8621 28.0478 90.7759 27.8565L89.687 25.4379C89.6627 25.3843 89.6195 25.341 89.5653 25.3165L87.1426 24.2191C86.9525 24.133 86.9525 23.867 87.1426 23.7809L89.5653 22.6835C89.6195 22.659 89.6627 22.6157 89.687 22.5621L90.7759 20.1435C90.8621 19.9522 91.1379 19.9522 91.224 20.1435L92.313 22.5621C92.3373 22.6157 92.3805 22.659 92.4347 22.6835L94.8574 23.7809C95.0475 23.867 95.0475 24.133 94.8574 24.2191L92.4347 25.3165C92.3805 25.341 92.3373 25.3843 92.313 25.4379L91.224 27.8565Z" fill="#FE4329"/>
<path d="M3.61262 39V31.55H6.48262C6.98928 31.55 7.43928 31.6433 7.83262 31.83C8.22595 32.01 8.53262 32.2767 8.75262 32.63C8.97262 32.9767 9.08262 33.3967 9.08262 33.89C9.08262 34.4033 8.95928 34.84 8.71262 35.2C8.46595 35.56 8.12928 35.8267 7.70262 36L9.42262 39H7.98262L6.41262 36.22H4.87262V39H3.61262ZM4.87262 35.12H6.48262C6.88262 35.12 7.20262 35.0067 7.44262 34.78C7.68262 34.5533 7.80262 34.2567 7.80262 33.89C7.80262 33.5167 7.68262 33.22 7.44262 33C7.20262 32.7733 6.88262 32.66 6.48262 32.66H4.87262V35.12ZM12.9193 39V31.55H17.8493V32.66H14.1793V34.71H17.6493V35.82H14.1793V37.89H17.8493L17.8393 39H12.9193ZM20.9532 39L23.5632 31.55H25.1632L27.7832 39H26.4432L25.8832 37.36H22.8432L22.2932 39H20.9532ZM23.2132 36.25H25.5132L24.3632 32.85L23.2132 36.25ZM31.0833 39V31.55H32.3433V37.89H35.6833V39H31.0833ZM43.388 39V31.55H48.318V32.66H44.648V34.71H48.118V35.82H44.648V37.89H48.318L48.308 39H43.388ZM54.672 39.12C54.1853 39.12 53.732 39.0333 53.312 38.86C52.8987 38.68 52.5453 38.4367 52.252 38.13C51.9587 37.8167 51.7487 37.46 51.622 37.06L52.702 36.57C52.8753 37.0367 53.1387 37.3933 53.492 37.64C53.852 37.8867 54.2453 38.01 54.672 38.01C55.092 38.01 55.4253 37.92 55.672 37.74C55.9253 37.5533 56.052 37.3233 56.052 37.05C56.052 36.7967 55.9753 36.5967 55.822 36.45C55.6687 36.3033 55.4453 36.1833 55.152 36.09L53.692 35.64C53.0787 35.4533 52.6187 35.1833 52.312 34.83C52.012 34.47 51.862 34.05 51.862 33.57C51.862 33.15 51.9687 32.78 52.182 32.46C52.402 32.1333 52.702 31.88 53.082 31.7C53.4687 31.52 53.9153 31.43 54.422 31.43C54.8953 31.43 55.322 31.5133 55.702 31.68C56.0887 31.84 56.4153 32.06 56.682 32.34C56.9553 32.6133 57.1553 32.9267 57.282 33.28L56.192 33.78C56.0587 33.3867 55.8387 33.0833 55.532 32.87C55.2253 32.65 54.8587 32.54 54.432 32.54C54.0387 32.54 53.722 32.6333 53.482 32.82C53.2487 33 53.132 33.23 53.132 33.51C53.132 33.9767 53.4387 34.3033 54.052 34.49L55.462 34.92C56.0753 35.1133 56.5387 35.3767 56.852 35.71C57.1653 36.0433 57.322 36.46 57.322 36.96C57.322 37.3933 57.2087 37.7733 56.982 38.1C56.762 38.42 56.452 38.67 56.052 38.85C55.6587 39.03 55.1987 39.12 54.672 39.12ZM62.3685 39V32.66H60.4185V31.55H65.5785V32.66H63.6385V39H62.3685ZM67.9259 39L70.5359 31.55H72.1359L74.7559 39H73.4159L72.8559 37.36H69.8159L69.2659 39H67.9259ZM70.1859 36.25H72.4859L71.3359 32.85L70.1859 36.25ZM79.0579 39V32.66H77.1079V31.55H82.2679V32.66H80.3279V39H79.0579ZM85.6634 39V31.55H90.5934V32.66H86.9234V34.71H90.3934V35.82H86.9234V37.89H90.5934L90.5834 39H85.6634Z" fill="#FE4329"/>
</svg>
